<svg width="40" height="36" viewBox="0 0 40 36" fill="none" xmlns="http://www.w3.org/2000/svg">
<path fill-rule="evenodd" clip-rule="evenodd" d="M28.1003 8.6C28.1003 13.0735 24.4738 16.7 20.0003 16.7C15.5268 16.7 11.9003 13.0735 11.9003 8.6C11.9003 4.12649 15.5268 0.5 20.0003 0.5C24.4738 0.5 28.1003 4.12649 28.1003 8.6ZM25.4003 8.6C25.4003 11.5823 22.9827 14 20.0003 14C17.018 14 14.6003 11.5823 14.6003 8.6C14.6003 5.61766 17.018 3.2 20.0003 3.2C22.9827 3.2 25.4003 5.61766 25.4003 8.6Z" fill="#4F378A"/>
<path d="M20.0003 20.75C11.2599 20.75 3.81285 25.9184 0.976074 33.1593C1.66713 33.8455 2.39511 34.4946 3.15677 35.1033C5.26917 28.4554 11.8959 23.45 20.0003 23.45C28.1048 23.45 34.7315 28.4554 36.8439 35.1033C37.6056 34.4946 38.3335 33.8455 39.0246 33.1593C36.1878 25.9184 28.7408 20.75 20.0003 20.75Z" fill="#4F378A"/>
</svg>
